# xmcd
#
# Track frame offsets: 
#        150
#        15830
#        30221
#        43327
#        58780
#        74024
#        83493
#        97020
#        112895
#        127063
#        139103
#        151585
#
# Disc length: 2268 seconds
#
# Revision: 0
# Processed by: cddbd v1.5.2PL0 Copyright (c) Steve Scherf et al.
# Submitted via: ExactAudioCopyFreeDBPlugin 1.0
#
DISCID=9308da0c
DTITLE=The Templeton Family - That Evening Train
DYEAR=2011
DGENRE=Bluegrass
TTITLE0=That Evening Train
TTITLE1=Julia Bell
TTITLE2=Foggy Mtn. Special
TTITLE3=Rabbit In A Log
TTITLE4=Stormy Horizons
TTITLE5=Foggy Mtn. Breakdown
TTITLE6=Livin The Right Life
TTITLE7=Faded Love
TTITLE8=Hills of Caroline
TTITLE9=Kentucky Mandolin
TTITLE10=East Virginia Blues
TTITLE11=Grandfathers Clock
EXTD=
EXTT0=
EXTT1=
EXTT2=
EXTT3=
EXTT4=
EXTT5=
EXTT6=
EXTT7=
EXTT8=
EXTT9=
EXTT10=
EXTT11=
PLAYORDER=
